<?xml version="1.0" encoding="utf-8"?>
<!-- Generator: Adobe Illustrator 16.0.0, SVG Export Plug-In . SVG Version: 6.00 Build 0)  -->
<!DOCTYPE svg PUBLIC "-//W3C//DTD SVG 1.1//EN" "http://www.w3.org/Graphics/SVG/1.1/DTD/svg11.dtd">
<svg version="1.1" id="Layer_1" xmlns="http://www.w3.org/2000/svg" xmlns:xlink="http://www.w3.org/1999/xlink" x="0px" y="0px"
	 width="1006.455px" height="96.23px" viewBox="0 0 1006.455 96.23" enable-background="new 0 0 1006.455 96.23"
	 xml:space="preserve">
<pattern  x="23.728" y="328.615" width="72.5" height="71.68" patternUnits="userSpaceOnUse" id="SVGID_1_" viewBox="0 -71.68 72.5 71.68" overflow="visible">
	<g>
		<polygon fill="none" points="0,0 72.5,0 72.5,-71.68 0,-71.68 		"/>
		<g>
			<polygon fill="none" points="0,0 72.5,0 72.5,-71.68 0,-71.68 			"/>
			<line fill="none" stroke="#FEDB03" stroke-width="2.88" x1="0" y1="-68.241" x2="72.5" y2="-68.241"/>
			<line fill="none" stroke="#FEDB03" stroke-width="2.88" x1="0" y1="-53.84" x2="72.5" y2="-53.84"/>
			<line fill="none" stroke="#FEDB03" stroke-width="2.88" x1="0" y1="-39.441" x2="72.5" y2="-39.441"/>
			<line fill="none" stroke="#FEDB03" stroke-width="2.88" x1="0" y1="-25.04" x2="72.5" y2="-25.04"/>
			<line fill="none" stroke="#FEDB03" stroke-width="2.88" x1="0" y1="-10.641" x2="72.5" y2="-10.641"/>
			<line fill="none" stroke="#FEDB03" stroke-width="2.88" x1="0" y1="-61.04" x2="72.5" y2="-61.04"/>
			<line fill="none" stroke="#FEDB03" stroke-width="2.88" x1="0" y1="-46.641" x2="72.5" y2="-46.641"/>
			<line fill="none" stroke="#FEDB03" stroke-width="2.88" x1="0" y1="-32.241" x2="72.5" y2="-32.241"/>
			<line fill="none" stroke="#FEDB03" stroke-width="2.88" x1="0" y1="-17.84" x2="72.5" y2="-17.84"/>
			<line fill="none" stroke="#FEDB03" stroke-width="2.88" x1="0" y1="-3.441" x2="72.5" y2="-3.441"/>
		</g>
	</g>
</pattern>
<pattern  x="23.728" y="328.615" width="72.5" height="71.68" patternUnits="userSpaceOnUse" id="SVGID_2_" viewBox="0 -71.68 72.5 71.68" overflow="visible">
	<g>
		<polygon fill="none" points="0,0 72.5,0 72.5,-71.68 0,-71.68 		"/>
		<g>
			<polygon fill="none" points="0,0 72.5,0 72.5,-71.68 0,-71.68 			"/>
			<line fill="none" stroke="#FEDB03" stroke-width="2.88" x1="0" y1="-68.241" x2="72.5" y2="-68.241"/>
			<line fill="none" stroke="#FEDB03" stroke-width="2.88" x1="0" y1="-53.84" x2="72.5" y2="-53.84"/>
			<line fill="none" stroke="#FEDB03" stroke-width="2.88" x1="0" y1="-39.441" x2="72.5" y2="-39.441"/>
			<line fill="none" stroke="#FEDB03" stroke-width="2.88" x1="0" y1="-25.04" x2="72.5" y2="-25.04"/>
			<line fill="none" stroke="#FEDB03" stroke-width="2.88" x1="0" y1="-10.641" x2="72.5" y2="-10.641"/>
			<line fill="none" stroke="#FEDB03" stroke-width="2.88" x1="0" y1="-61.04" x2="72.5" y2="-61.04"/>
			<line fill="none" stroke="#FEDB03" stroke-width="2.88" x1="0" y1="-46.641" x2="72.5" y2="-46.641"/>
			<line fill="none" stroke="#FEDB03" stroke-width="2.88" x1="0" y1="-32.241" x2="72.5" y2="-32.241"/>
			<line fill="none" stroke="#FEDB03" stroke-width="2.88" x1="0" y1="-17.84" x2="72.5" y2="-17.84"/>
			<line fill="none" stroke="#FEDB03" stroke-width="2.88" x1="0" y1="-3.441" x2="72.5" y2="-3.441"/>
		</g>
	</g>
</pattern>
<pattern  x="23.728" y="328.615" width="72.5" height="71.68" patternUnits="userSpaceOnUse" id="SVGID_3_" viewBox="0 -71.68 72.5 71.68" overflow="visible">
	<g>
		<polygon fill="none" points="0,0 72.5,0 72.5,-71.68 0,-71.68 		"/>
		<g>
			<polygon fill="none" points="0,0 72.5,0 72.5,-71.68 0,-71.68 			"/>
			<line fill="none" stroke="#FEDB03" stroke-width="2.88" x1="0" y1="-68.241" x2="72.5" y2="-68.241"/>
			<line fill="none" stroke="#FEDB03" stroke-width="2.88" x1="0" y1="-53.84" x2="72.5" y2="-53.84"/>
			<line fill="none" stroke="#FEDB03" stroke-width="2.88" x1="0" y1="-39.441" x2="72.5" y2="-39.441"/>
			<line fill="none" stroke="#FEDB03" stroke-width="2.88" x1="0" y1="-25.04" x2="72.5" y2="-25.04"/>
			<line fill="none" stroke="#FEDB03" stroke-width="2.88" x1="0" y1="-10.641" x2="72.5" y2="-10.641"/>
			<line fill="none" stroke="#FEDB03" stroke-width="2.88" x1="0" y1="-61.04" x2="72.5" y2="-61.04"/>
			<line fill="none" stroke="#FEDB03" stroke-width="2.88" x1="0" y1="-46.641" x2="72.5" y2="-46.641"/>
			<line fill="none" stroke="#FEDB03" stroke-width="2.88" x1="0" y1="-32.241" x2="72.5" y2="-32.241"/>
			<line fill="none" stroke="#FEDB03" stroke-width="2.88" x1="0" y1="-17.84" x2="72.5" y2="-17.84"/>
			<line fill="none" stroke="#FEDB03" stroke-width="2.88" x1="0" y1="-3.441" x2="72.5" y2="-3.441"/>
		</g>
	</g>
</pattern>
<pattern  x="23.728" y="328.615" width="72.5" height="71.68" patternUnits="userSpaceOnUse" id="SVGID_4_" viewBox="0 -71.68 72.5 71.68" overflow="visible">
	<g>
		<polygon fill="none" points="0,0 72.5,0 72.5,-71.68 0,-71.68 		"/>
		<g>
			<polygon fill="none" points="0,0 72.5,0 72.5,-71.68 0,-71.68 			"/>
			<line fill="none" stroke="#FEDB03" stroke-width="2.88" x1="0" y1="-68.241" x2="72.5" y2="-68.241"/>
			<line fill="none" stroke="#FEDB03" stroke-width="2.88" x1="0" y1="-53.84" x2="72.5" y2="-53.84"/>
			<line fill="none" stroke="#FEDB03" stroke-width="2.88" x1="0" y1="-39.441" x2="72.5" y2="-39.441"/>
			<line fill="none" stroke="#FEDB03" stroke-width="2.88" x1="0" y1="-25.04" x2="72.5" y2="-25.04"/>
			<line fill="none" stroke="#FEDB03" stroke-width="2.88" x1="0" y1="-10.641" x2="72.5" y2="-10.641"/>
			<line fill="none" stroke="#FEDB03" stroke-width="2.88" x1="0" y1="-61.04" x2="72.5" y2="-61.04"/>
			<line fill="none" stroke="#FEDB03" stroke-width="2.88" x1="0" y1="-46.641" x2="72.5" y2="-46.641"/>
			<line fill="none" stroke="#FEDB03" stroke-width="2.88" x1="0" y1="-32.241" x2="72.5" y2="-32.241"/>
			<line fill="none" stroke="#FEDB03" stroke-width="2.88" x1="0" y1="-17.84" x2="72.5" y2="-17.84"/>
			<line fill="none" stroke="#FEDB03" stroke-width="2.88" x1="0" y1="-3.441" x2="72.5" y2="-3.441"/>
		</g>
	</g>
</pattern>
<pattern  x="23.728" y="328.615" width="72.5" height="71.68" patternUnits="userSpaceOnUse" id="SVGID_5_" viewBox="0 -71.68 72.5 71.68" overflow="visible">
	<g>
		<polygon fill="none" points="0,0 72.5,0 72.5,-71.68 0,-71.68 		"/>
		<g>
			<polygon fill="none" points="0,0 72.5,0 72.5,-71.68 0,-71.68 			"/>
			<line fill="none" stroke="#FEDB03" stroke-width="2.88" x1="0" y1="-68.241" x2="72.5" y2="-68.241"/>
			<line fill="none" stroke="#FEDB03" stroke-width="2.88" x1="0" y1="-53.84" x2="72.5" y2="-53.84"/>
			<line fill="none" stroke="#FEDB03" stroke-width="2.88" x1="0" y1="-39.441" x2="72.5" y2="-39.441"/>
			<line fill="none" stroke="#FEDB03" stroke-width="2.88" x1="0" y1="-25.04" x2="72.5" y2="-25.04"/>
			<line fill="none" stroke="#FEDB03" stroke-width="2.88" x1="0" y1="-10.641" x2="72.5" y2="-10.641"/>
			<line fill="none" stroke="#FEDB03" stroke-width="2.88" x1="0" y1="-61.04" x2="72.5" y2="-61.04"/>
			<line fill="none" stroke="#FEDB03" stroke-width="2.88" x1="0" y1="-46.641" x2="72.5" y2="-46.641"/>
			<line fill="none" stroke="#FEDB03" stroke-width="2.88" x1="0" y1="-32.241" x2="72.5" y2="-32.241"/>
			<line fill="none" stroke="#FEDB03" stroke-width="2.88" x1="0" y1="-17.84" x2="72.5" y2="-17.84"/>
			<line fill="none" stroke="#FEDB03" stroke-width="2.88" x1="0" y1="-3.441" x2="72.5" y2="-3.441"/>
		</g>
	</g>
</pattern>
<pattern  x="23.728" y="328.615" width="72.5" height="71.68" patternUnits="userSpaceOnUse" id="SVGID_6_" viewBox="0 -71.68 72.5 71.68" overflow="visible">
	<g>
		<polygon fill="none" points="0,0 72.5,0 72.5,-71.68 0,-71.68 		"/>
		<g>
			<polygon fill="none" points="0,0 72.5,0 72.5,-71.68 0,-71.68 			"/>
			<line fill="none" stroke="#FEDB03" stroke-width="2.88" x1="0" y1="-68.241" x2="72.5" y2="-68.241"/>
			<line fill="none" stroke="#FEDB03" stroke-width="2.88" x1="0" y1="-53.84" x2="72.5" y2="-53.84"/>
			<line fill="none" stroke="#FEDB03" stroke-width="2.88" x1="0" y1="-39.441" x2="72.5" y2="-39.441"/>
			<line fill="none" stroke="#FEDB03" stroke-width="2.88" x1="0" y1="-25.04" x2="72.5" y2="-25.04"/>
			<line fill="none" stroke="#FEDB03" stroke-width="2.88" x1="0" y1="-10.641" x2="72.5" y2="-10.641"/>
			<line fill="none" stroke="#FEDB03" stroke-width="2.88" x1="0" y1="-61.04" x2="72.5" y2="-61.04"/>
			<line fill="none" stroke="#FEDB03" stroke-width="2.88" x1="0" y1="-46.641" x2="72.5" y2="-46.641"/>
			<line fill="none" stroke="#FEDB03" stroke-width="2.88" x1="0" y1="-32.241" x2="72.5" y2="-32.241"/>
			<line fill="none" stroke="#FEDB03" stroke-width="2.88" x1="0" y1="-17.84" x2="72.5" y2="-17.84"/>
			<line fill="none" stroke="#FEDB03" stroke-width="2.88" x1="0" y1="-3.441" x2="72.5" y2="-3.441"/>
		</g>
	</g>
</pattern>
<pattern  x="23.728" y="328.615" width="72.5" height="71.68" patternUnits="userSpaceOnUse" id="SVGID_7_" viewBox="0 -71.68 72.5 71.68" overflow="visible">
	<g>
		<polygon fill="none" points="0,0 72.5,0 72.5,-71.68 0,-71.68 		"/>
		<g>
			<polygon fill="none" points="0,0 72.5,0 72.5,-71.68 0,-71.68 			"/>
			<line fill="none" stroke="#FEDB03" stroke-width="2.88" x1="0" y1="-68.241" x2="72.5" y2="-68.241"/>
			<line fill="none" stroke="#FEDB03" stroke-width="2.88" x1="0" y1="-53.84" x2="72.5" y2="-53.84"/>
			<line fill="none" stroke="#FEDB03" stroke-width="2.88" x1="0" y1="-39.441" x2="72.5" y2="-39.441"/>
			<line fill="none" stroke="#FEDB03" stroke-width="2.88" x1="0" y1="-25.04" x2="72.5" y2="-25.04"/>
			<line fill="none" stroke="#FEDB03" stroke-width="2.88" x1="0" y1="-10.641" x2="72.5" y2="-10.641"/>
			<line fill="none" stroke="#FEDB03" stroke-width="2.88" x1="0" y1="-61.04" x2="72.5" y2="-61.04"/>
			<line fill="none" stroke="#FEDB03" stroke-width="2.88" x1="0" y1="-46.641" x2="72.5" y2="-46.641"/>
			<line fill="none" stroke="#FEDB03" stroke-width="2.88" x1="0" y1="-32.241" x2="72.5" y2="-32.241"/>
			<line fill="none" stroke="#FEDB03" stroke-width="2.88" x1="0" y1="-17.84" x2="72.5" y2="-17.84"/>
			<line fill="none" stroke="#FEDB03" stroke-width="2.88" x1="0" y1="-3.441" x2="72.5" y2="-3.441"/>
		</g>
	</g>
</pattern>
<pattern  x="23.728" y="328.615" width="72.5" height="71.68" patternUnits="userSpaceOnUse" id="SVGID_8_" viewBox="0 -71.68 72.5 71.68" overflow="visible">
	<g>
		<polygon fill="none" points="0,0 72.5,0 72.5,-71.68 0,-71.68 		"/>
		<g>
			<polygon fill="none" points="0,0 72.5,0 72.5,-71.68 0,-71.68 			"/>
			<line fill="none" stroke="#FEDB03" stroke-width="2.88" x1="0" y1="-68.241" x2="72.5" y2="-68.241"/>
			<line fill="none" stroke="#FEDB03" stroke-width="2.88" x1="0" y1="-53.84" x2="72.5" y2="-53.84"/>
			<line fill="none" stroke="#FEDB03" stroke-width="2.88" x1="0" y1="-39.441" x2="72.5" y2="-39.441"/>
			<line fill="none" stroke="#FEDB03" stroke-width="2.88" x1="0" y1="-25.04" x2="72.5" y2="-25.04"/>
			<line fill="none" stroke="#FEDB03" stroke-width="2.88" x1="0" y1="-10.641" x2="72.5" y2="-10.641"/>
			<line fill="none" stroke="#FEDB03" stroke-width="2.88" x1="0" y1="-61.04" x2="72.5" y2="-61.04"/>
			<line fill="none" stroke="#FEDB03" stroke-width="2.88" x1="0" y1="-46.641" x2="72.5" y2="-46.641"/>
			<line fill="none" stroke="#FEDB03" stroke-width="2.88" x1="0" y1="-32.241" x2="72.5" y2="-32.241"/>
			<line fill="none" stroke="#FEDB03" stroke-width="2.88" x1="0" y1="-17.84" x2="72.5" y2="-17.84"/>
			<line fill="none" stroke="#FEDB03" stroke-width="2.88" x1="0" y1="-3.441" x2="72.5" y2="-3.441"/>
		</g>
	</g>
</pattern>
<pattern  x="23.728" y="328.615" width="72.5" height="71.68" patternUnits="userSpaceOnUse" id="SVGID_9_" viewBox="0 -71.68 72.5 71.68" overflow="visible">
	<g>
		<polygon fill="none" points="0,0 72.5,0 72.5,-71.68 0,-71.68 		"/>
		<g>
			<polygon fill="none" points="0,0 72.5,0 72.5,-71.68 0,-71.68 			"/>
			<line fill="none" stroke="#FEDB03" stroke-width="2.88" x1="0" y1="-68.241" x2="72.5" y2="-68.241"/>
			<line fill="none" stroke="#FEDB03" stroke-width="2.88" x1="0" y1="-53.84" x2="72.5" y2="-53.84"/>
			<line fill="none" stroke="#FEDB03" stroke-width="2.88" x1="0" y1="-39.441" x2="72.5" y2="-39.441"/>
			<line fill="none" stroke="#FEDB03" stroke-width="2.88" x1="0" y1="-25.04" x2="72.5" y2="-25.04"/>
			<line fill="none" stroke="#FEDB03" stroke-width="2.88" x1="0" y1="-10.641" x2="72.5" y2="-10.641"/>
			<line fill="none" stroke="#FEDB03" stroke-width="2.88" x1="0" y1="-61.04" x2="72.5" y2="-61.04"/>
			<line fill="none" stroke="#FEDB03" stroke-width="2.88" x1="0" y1="-46.641" x2="72.5" y2="-46.641"/>
			<line fill="none" stroke="#FEDB03" stroke-width="2.88" x1="0" y1="-32.241" x2="72.5" y2="-32.241"/>
			<line fill="none" stroke="#FEDB03" stroke-width="2.88" x1="0" y1="-17.84" x2="72.5" y2="-17.84"/>
			<line fill="none" stroke="#FEDB03" stroke-width="2.88" x1="0" y1="-3.441" x2="72.5" y2="-3.441"/>
		</g>
	</g>
</pattern>
<g>
	<path fill="#FEDB03" d="M52.495,3.983c-3.471-0.93-10.918-1.396-22.344-1.396H0v93.056h18.789V60.542H31.04
		c8.506,0,15.002-0.445,19.487-1.334c3.301-0.72,6.548-2.189,9.743-4.411s5.83-5.278,7.903-9.172
		c2.073-3.894,3.11-8.696,3.11-14.409c0-7.405-1.799-13.446-5.396-18.123C62.292,8.417,57.827,5.38,52.495,3.983z M49.798,38.705
		c-1.419,2.073-3.375,3.597-5.872,4.569c-2.497,0.975-7.448,1.46-14.854,1.46H18.789V18.329h9.077c6.77,0,11.277,0.212,13.521,0.635
		c3.047,0.55,5.563,1.926,7.554,4.126c1.988,2.201,2.983,4.994,2.983,8.379C51.924,34.22,51.215,36.632,49.798,38.705z"/>
	<g>
		<path fill="none" d="M158.387,16.06c-7.744,0-13.987,2.656-18.726,7.966c-4.74,5.312-7.109,13.32-7.109,24.026
			c0,10.537,2.434,18.525,7.3,23.962c4.866,5.438,11.045,8.156,18.535,8.156c7.49,0,13.637-2.697,18.44-8.093
			c4.802-5.396,7.204-13.489,7.204-24.28c0-10.664-2.339-18.62-7.015-23.867C172.341,18.684,166.131,16.06,158.387,16.06z"/>
		<path fill="#FEDB03" d="M203.455,48.242c0-15.149-4.116-26.979-12.347-35.483S171.907,0,158.196,0
			c-7.576,0-14.262,1.228-20.059,3.682c-4.359,1.82-8.369,4.613-12.029,8.379c-3.66,3.768-6.549,8.021-8.664,12.759
			c-2.836,6.434-4.253,14.389-4.253,23.867c0,14.813,4.083,26.438,12.251,34.88c8.166,8.442,19.17,12.664,33.008,12.664
			c3.838,0,7.451-0.348,10.855-1.017l32.701-32.7C202.964,58.137,203.455,53.385,203.455,48.242z M176.827,72.078
			c-4.804,5.396-10.95,8.093-18.44,8.093c-7.49,0-13.669-2.719-18.535-8.156c-4.866-5.437-7.3-13.426-7.3-23.962
			c0-10.706,2.369-18.715,7.109-24.026c4.738-5.31,10.981-7.966,18.726-7.966c7.745,0,13.954,2.625,18.63,7.871
			c4.676,5.248,7.015,13.203,7.015,23.867C184.031,58.588,181.629,66.682,176.827,72.078z"/>
	</g>
	<g>
		<path fill="none" d="M635.387,16.06c-7.744,0-13.986,2.656-18.726,7.966c-4.74,5.312-7.109,13.32-7.109,24.026
			c0,10.537,2.435,18.525,7.3,23.962c4.866,5.438,11.045,8.156,18.535,8.156s13.638-2.697,18.44-8.093
			c4.802-5.396,7.204-13.489,7.204-24.28c0-10.664-2.339-18.62-7.016-23.867C649.341,18.684,643.131,16.06,635.387,16.06z"/>
		<path fill="#FEDB03" d="M680.455,48.242c0-15.149-4.116-26.979-12.347-35.483C659.877,4.254,648.907,0,635.196,0
			c-7.576,0-14.263,1.228-20.06,3.682c-4.358,1.82-8.369,4.613-12.028,8.379c-3.66,3.768-6.55,8.021-8.664,12.759
			c-2.836,6.434-4.253,14.389-4.253,23.867c0,14.813,4.083,26.438,12.251,34.88c8.166,8.442,19.17,12.664,33.008,12.664
			c3.604,0,7.012-0.304,10.232-0.895l33.464-33.463C680.014,57.674,680.455,53.135,680.455,48.242z M653.827,72.078
			c-4.804,5.396-10.95,8.093-18.44,8.093c-7.489,0-13.669-2.719-18.535-8.156c-4.865-5.437-7.3-13.426-7.3-23.962
			c0-10.706,2.369-18.715,7.109-24.026c4.738-5.31,10.981-7.966,18.726-7.966c7.745,0,13.954,2.625,18.631,7.871
			c4.676,5.248,7.015,13.203,7.015,23.867C661.031,58.588,658.629,66.682,653.827,72.078z"/>
	</g>
	<g>
		<polygon fill="#FEDB03" points="853.218,2.587 834.429,2.587 834.429,95.424 853.218,76.635 		"/>
	</g>
	<g>
		<path fill="none" d="M947.387,16.06c-7.744,0-13.986,2.656-18.726,7.966c-4.74,5.312-7.109,13.32-7.109,24.026
			c0,10.537,2.435,18.525,7.3,23.962c4.866,5.438,11.045,8.156,18.535,8.156s13.638-2.697,18.44-8.093
			c4.802-5.396,7.204-13.489,7.204-24.28c0-10.664-2.34-18.62-7.016-23.867C961.341,18.684,955.131,16.06,947.387,16.06z"/>
		<path fill="#FEDB03" d="M992.455,48.242c0-15.149-4.116-26.979-12.347-35.483C971.877,4.254,960.907,0,947.196,0
			c-7.576,0-14.263,1.228-20.06,3.682c-4.358,1.82-8.369,4.613-12.028,8.379c-3.66,3.768-6.55,8.021-8.664,12.759
			c-2.836,6.434-4.253,14.389-4.253,23.867c0,14.813,4.083,26.438,12.251,34.88c8.166,8.442,19.17,12.664,33.008,12.664
			c3.087,0,6.025-0.229,8.833-0.662l35.139-35.139C992.104,56.637,992.455,52.581,992.455,48.242z M965.827,72.078
			c-4.804,5.396-10.95,8.093-18.44,8.093c-7.489,0-13.669-2.719-18.535-8.156c-4.865-5.437-7.3-13.426-7.3-23.962
			c0-10.706,2.369-18.715,7.109-24.026c4.738-5.31,10.981-7.966,18.726-7.966c7.745,0,13.954,2.625,18.631,7.871
			c4.676,5.248,7.015,13.203,7.015,23.867C973.031,58.588,970.629,66.682,965.827,72.078z"/>
	</g>
	<g>
		<polygon fill="#FEDB03" points="415.736,18.329 443.285,18.329 443.285,2.587 369.335,2.587 369.335,18.329 396.947,18.329 
			396.947,95.643 402.377,95.643 415.736,82.284 		"/>
	</g>
	<g>
		<path fill="none" d="M305.907,36.864c1.27-1.861,1.904-4.188,1.904-6.981c0-3.131-0.836-5.659-2.508-7.585
			c-1.672-1.925-4.03-3.143-7.077-3.65c-1.523-0.211-6.094-0.316-13.711-0.316h-14.663v23.612h13.901
			c9.014,0,14.642-0.381,16.885-1.143C302.881,40.038,304.638,38.727,305.907,36.864z"/>
		<path fill="#FEDB03" d="M323.363,77.489c-4.485-7.235-8.052-12.271-10.696-15.106c-2.645-2.834-5.998-5.438-10.061-7.807
			c8.166-1.186,14.303-4.054,18.408-8.603c4.104-4.548,6.157-10.314,6.157-17.297c0-5.5-1.354-10.388-4.063-14.663
			c-2.708-4.274-6.315-7.246-10.823-8.918c-4.506-1.671-11.732-2.507-21.677-2.507h-19.796l-19.75,19.75v73.306h18.789V56.795h3.809
			c4.316,0,7.469,0.35,9.458,1.048c1.989,0.698,3.872,1.989,5.649,3.872s5.078,6.443,9.902,13.68l13.584,20.248h22.471
			L323.363,77.489z M283.754,41.942h-13.901V18.329h14.663c7.617,0,12.188,0.105,13.711,0.316c3.047,0.508,5.405,1.726,7.077,3.65
			c1.672,1.926,2.508,4.454,2.508,7.585c0,2.793-0.635,5.121-1.904,6.981c-1.27,1.863-3.025,3.175-5.269,3.937
			C298.395,41.561,292.768,41.942,283.754,41.942z"/>
	</g>
	<g>
		<polygon fill="#FEDB03" points="548.921,18.329 548.921,2.587 504.877,2.587 485.127,22.337 485.127,95.643 503.916,95.643 
			503.916,56.098 542.764,56.098 542.764,40.355 503.916,40.355 503.916,18.329 		"/>
	</g>
	<g opacity="0.7">
		
			<pattern  id="SVGID_10_" xlink:href="#SVGID_1_" patternTransform="matrix(0.7071 -0.7071 -0.7071 -0.7071 -5303.8057 -11931.5107)"  opacity="0.7">
		</pattern>
		<path fill="url(#SVGID_10_)" d="M64.675,4.022c-3.471-0.93-10.918-1.396-22.344-1.396H12.18v93.056h18.789V60.581H43.22
			c8.506,0,15.002-0.445,19.487-1.334c3.301-0.72,6.548-2.189,9.743-4.411s5.83-5.278,7.903-9.172
			c2.073-3.894,3.11-8.696,3.11-14.409c0-7.405-1.799-13.446-5.396-18.123C74.472,8.456,70.007,5.419,64.675,4.022z M61.978,38.744
			c-1.419,2.073-3.375,3.597-5.872,4.569c-2.497,0.975-7.448,1.46-14.854,1.46H30.969V18.368h9.077
			c6.77,0,11.277,0.212,13.521,0.635c3.047,0.55,5.563,1.926,7.554,4.126c1.988,2.201,2.983,4.994,2.983,8.379
			C64.104,34.259,63.395,36.671,61.978,38.744z"/>
		<g>
			<path fill="none" d="M170.567,16.099c-7.744,0-13.987,2.656-18.726,7.966c-4.74,5.312-7.109,13.32-7.109,24.026
				c0,10.537,2.434,18.525,7.3,23.962c4.866,5.438,11.045,8.156,18.535,8.156c7.49,0,13.637-2.697,18.44-8.093
				c4.802-5.396,7.204-13.489,7.204-24.28c0-10.664-2.339-18.62-7.015-23.867C184.521,18.723,178.311,16.099,170.567,16.099z"/>
			
				<pattern  id="SVGID_11_" xlink:href="#SVGID_2_" patternTransform="matrix(0.7071 -0.7071 -0.7071 -0.7071 -5305.8057 -11930.5107)">
			</pattern>
			<path fill="url(#SVGID_11_)" d="M215.635,48.281c0-15.149-4.116-26.979-12.347-35.483S184.087,0.039,170.375,0.039
				c-7.576,0-14.262,1.228-20.059,3.682c-4.359,1.82-8.369,4.613-12.029,8.379c-3.66,3.768-6.549,8.021-8.664,12.759
				c-2.836,6.434-4.253,14.389-4.253,23.867c0,14.813,4.083,26.438,12.251,34.88c8.166,8.442,19.17,12.664,33.008,12.664
				c4.31,0,8.345-0.424,12.107-1.268l31.165-31.166C215.057,59.115,215.635,53.928,215.635,48.281z M189.007,72.117
				c-4.804,5.396-10.95,8.093-18.44,8.093c-7.49,0-13.669-2.719-18.535-8.156c-4.866-5.437-7.3-13.426-7.3-23.962
				c0-10.706,2.369-18.715,7.109-24.026c4.738-5.31,10.981-7.966,18.726-7.966c7.745,0,13.954,2.625,18.63,7.871
				c4.676,5.248,7.015,13.203,7.015,23.867C196.211,58.627,193.809,66.721,189.007,72.117z"/>
		</g>
		<g>
			<path fill="none" d="M647.566,16.099c-7.744,0-13.986,2.656-18.726,7.966c-4.74,5.312-7.109,13.32-7.109,24.026
				c0,10.537,2.435,18.525,7.3,23.962c4.866,5.438,11.045,8.156,18.535,8.156s13.638-2.697,18.44-8.093
				c4.802-5.396,7.204-13.489,7.204-24.28c0-10.664-2.339-18.62-7.016-23.867C661.521,18.723,655.311,16.099,647.566,16.099z"/>
			
				<pattern  id="SVGID_12_" xlink:href="#SVGID_3_" patternTransform="matrix(0.7071 -0.7071 -0.7071 -0.7071 -5301.8057 -11931.5107)">
			</pattern>
			<path fill="url(#SVGID_12_)" d="M692.635,48.281c0-15.149-4.116-26.979-12.347-35.483c-8.231-8.505-19.201-12.759-32.912-12.759
				c-7.576,0-14.263,1.228-20.06,3.682c-4.358,1.82-8.369,4.613-12.028,8.379c-3.66,3.768-6.55,8.021-8.664,12.759
				c-2.836,6.434-4.253,14.389-4.253,23.867c0,14.813,4.083,26.438,12.251,34.88c8.166,8.442,19.17,12.664,33.008,12.664
				c5.646,0,10.815-0.735,15.522-2.184l26.746-26.746C691.715,61.71,692.635,55.365,692.635,48.281z M666.007,72.117
				c-4.804,5.396-10.95,8.093-18.44,8.093c-7.489,0-13.669-2.719-18.535-8.156c-4.865-5.437-7.3-13.426-7.3-23.962
				c0-10.706,2.369-18.715,7.109-24.026c4.738-5.31,10.981-7.966,18.726-7.966c7.745,0,13.954,2.625,18.631,7.871
				c4.676,5.248,7.015,13.203,7.015,23.867C673.211,58.627,670.809,66.721,666.007,72.117z"/>
		</g>
		<g>
			
				<pattern  id="SVGID_13_" xlink:href="#SVGID_4_" patternTransform="matrix(0.7071 -0.7071 -0.7071 -0.7071 -5301.8057 -11931.5107)">
			</pattern>
			<polygon fill="url(#SVGID_13_)" points="865.397,2.626 846.608,2.626 846.608,91.463 865.397,72.674 			"/>
		</g>
		<g>
			<path fill="none" d="M959.566,16.099c-7.744,0-13.986,2.656-18.726,7.966c-4.74,5.312-7.109,13.32-7.109,24.026
				c0,10.537,2.435,18.525,7.3,23.962c4.866,5.438,11.045,8.156,18.535,8.156s13.637-2.697,18.44-8.093
				c4.802-5.396,7.204-13.489,7.204-24.28c0-10.664-2.34-18.62-7.016-23.867C973.521,18.723,967.311,16.099,959.566,16.099z"/>
			
				<pattern  id="SVGID_14_" xlink:href="#SVGID_5_" patternTransform="matrix(0.7071 -0.7071 -0.7071 -0.7071 -5303.8057 -11930.5107)">
			</pattern>
			<path fill="url(#SVGID_14_)" d="M1004.635,48.281c0-15.149-4.116-26.979-12.347-35.483c-8.231-8.505-19.201-12.759-32.912-12.759
				c-7.576,0-14.263,1.228-20.06,3.682c-4.358,1.82-8.369,4.613-12.028,8.379c-3.66,3.768-6.55,8.021-8.664,12.759
				c-2.836,6.434-4.253,14.389-4.253,23.867c0,14.813,4.083,26.438,12.251,34.88c8.166,8.442,19.17,12.664,33.008,12.664
				c4.479,0,8.659-0.465,12.549-1.377l30.602-30.603C1004.012,59.444,1004.635,54.112,1004.635,48.281z M978.007,72.117
				c-4.804,5.396-10.95,8.093-18.44,8.093c-7.489,0-13.669-2.719-18.535-8.156c-4.865-5.437-7.3-13.426-7.3-23.962
				c0-10.706,2.369-18.715,7.109-24.026c4.738-5.31,10.981-7.966,18.726-7.966c7.745,0,13.954,2.625,18.631,7.871
				c4.676,5.248,7.015,13.203,7.015,23.867C985.211,58.627,982.809,66.721,978.007,72.117z"/>
		</g>
		<g>
			
				<pattern  id="SVGID_15_" xlink:href="#SVGID_6_" patternTransform="matrix(0.7071 -0.7071 -0.7071 -0.7071 -5291.8057 -11931.5107)">
			</pattern>
			<polygon fill="url(#SVGID_15_)" points="455.465,18.368 455.465,2.626 381.515,2.626 381.515,18.368 409.126,18.368 
				409.126,94.112 427.916,75.323 427.916,18.368 			"/>
		</g>
		<g>
			<path fill="none" d="M318.087,36.903c1.27-1.861,1.904-4.188,1.904-6.981c0-3.131-0.836-5.659-2.508-7.585
				c-1.672-1.925-4.03-3.143-7.077-3.65c-1.523-0.211-6.094-0.316-13.711-0.316h-14.663v23.612h13.901
				c9.014,0,14.642-0.381,16.885-1.143C315.061,40.077,316.818,38.766,318.087,36.903z"/>
			
				<pattern  id="SVGID_16_" xlink:href="#SVGID_7_" patternTransform="matrix(0.7071 -0.7071 -0.7071 -0.7071 -5301.8057 -11931.5107)">
			</pattern>
			<path fill="url(#SVGID_16_)" d="M335.542,77.528c-4.485-7.235-8.052-12.271-10.696-15.106c-2.645-2.834-5.998-5.438-10.061-7.807
				c8.166-1.186,14.303-4.054,18.408-8.603c4.104-4.548,6.157-10.314,6.157-17.297c0-5.5-1.354-10.388-4.063-14.663
				c-2.708-4.274-6.315-7.246-10.823-8.918c-4.506-1.671-11.732-2.507-21.677-2.507h-31.796l-7.75,7.75v85.306h18.789V56.834h3.809
				c4.316,0,7.469,0.35,9.458,1.048c1.989,0.698,3.872,1.989,5.649,3.872s5.078,6.443,9.902,13.68l13.584,20.248h22.471
				L335.542,77.528z M295.934,41.981h-13.901V18.368h14.663c7.617,0,12.188,0.105,13.711,0.316c3.047,0.508,5.405,1.726,7.077,3.65
				c1.672,1.926,2.508,4.454,2.508,7.585c0,2.793-0.635,5.121-1.904,6.981c-1.27,1.863-3.025,3.175-5.269,3.937
				C310.575,41.6,304.948,41.981,295.934,41.981z"/>
		</g>
		<g>
			
				<pattern  id="SVGID_17_" xlink:href="#SVGID_8_" patternTransform="matrix(0.7071 -0.7071 -0.7071 -0.7071 -5297.8135 -11931.5029)">
			</pattern>
			<polygon fill="url(#SVGID_17_)" points="561.093,18.376 561.093,2.634 505.049,2.634 497.299,10.384 497.299,95.69 
				516.088,95.69 516.088,56.145 554.936,56.145 554.936,40.402 516.088,40.402 516.088,18.376 			"/>
		</g>
		<g>
			
				<pattern  id="SVGID_18_" xlink:href="#SVGID_9_" patternTransform="matrix(0.7071 -0.7071 -0.7071 -0.7071 -5301.8057 -11931.5107)">
			</pattern>
			<polygon fill="url(#SVGID_18_)" points="754.477,80.004 754.477,3.388 741.295,3.388 735.688,8.995 735.688,95.682 
				801.195,95.682 801.195,80.004 			"/>
		</g>
	</g>
	<g>
		<polygon fill="#FEDB03" points="742.297,79.965 742.297,3.349 742.115,3.349 723.508,21.956 723.508,95.643 789.016,95.643 
			789.016,79.965 		"/>
	</g>
</g>
</svg>
