<?xml version="1.0" encoding="iso-8859-1"?>
<!-- Generator: Adobe Illustrator 16.0.0, SVG Export Plug-In . SVG Version: 6.00 Build 0)  -->
<!DOCTYPE svg PUBLIC "-//W3C//DTD SVG 1.1//EN" "http://www.w3.org/Graphics/SVG/1.1/DTD/svg11.dtd">
<svg version="1.1" id="Layer_1" xmlns="http://www.w3.org/2000/svg" xmlns:xlink="http://www.w3.org/1999/xlink" x="0px" y="0px"
	 width="1033.094px" height="102.961px" viewBox="0 0 1033.094 102.961" style="enable-background:new 0 0 1033.094 102.961;"
	 xml:space="preserve">
<pattern  x="52.047" y="-228.535" width="72" height="72" patternUnits="userSpaceOnUse" id="_x31_0_lpi_40_x25__2" viewBox="72.25 -72 72 72" style="overflow:visible;">
	<g>
		<polygon style="fill:none;" points="72.25,-72 144.25,-72 144.25,0 72.25,0 		"/>
		<g>
			<line style="fill:none;stroke:#FEDB03;stroke-width:2.88;" x1="144" y1="-3.6" x2="216.5" y2="-3.6"/>
			<line style="fill:none;stroke:#FEDB03;stroke-width:2.88;" x1="144" y1="-18" x2="216.5" y2="-18"/>
			<line style="fill:none;stroke:#FEDB03;stroke-width:2.88;" x1="144" y1="-32.399" x2="216.5" y2="-32.399"/>
			<line style="fill:none;stroke:#FEDB03;stroke-width:2.88;" x1="144" y1="-46.8" x2="216.5" y2="-46.8"/>
			<line style="fill:none;stroke:#FEDB03;stroke-width:2.88;" x1="144" y1="-61.199" x2="216.5" y2="-61.199"/>
			<line style="fill:none;stroke:#FEDB03;stroke-width:2.88;" x1="144" y1="-10.8" x2="216.5" y2="-10.8"/>
			<line style="fill:none;stroke:#FEDB03;stroke-width:2.88;" x1="144" y1="-25.199" x2="216.5" y2="-25.199"/>
			<line style="fill:none;stroke:#FEDB03;stroke-width:2.88;" x1="144" y1="-39.6" x2="216.5" y2="-39.6"/>
			<line style="fill:none;stroke:#FEDB03;stroke-width:2.88;" x1="144" y1="-54" x2="216.5" y2="-54"/>
			<line style="fill:none;stroke:#FEDB03;stroke-width:2.88;" x1="144" y1="-68.399" x2="216.5" y2="-68.399"/>
		</g>
		<g>
			<line style="fill:none;stroke:#FEDB03;stroke-width:2.88;" x1="72" y1="-3.6" x2="144.5" y2="-3.6"/>
			<line style="fill:none;stroke:#FEDB03;stroke-width:2.88;" x1="72" y1="-18" x2="144.5" y2="-18"/>
			<line style="fill:none;stroke:#FEDB03;stroke-width:2.88;" x1="72" y1="-32.399" x2="144.5" y2="-32.399"/>
			<line style="fill:none;stroke:#FEDB03;stroke-width:2.88;" x1="72" y1="-46.8" x2="144.5" y2="-46.8"/>
			<line style="fill:none;stroke:#FEDB03;stroke-width:2.88;" x1="72" y1="-61.199" x2="144.5" y2="-61.199"/>
			<line style="fill:none;stroke:#FEDB03;stroke-width:2.88;" x1="72" y1="-10.8" x2="144.5" y2="-10.8"/>
			<line style="fill:none;stroke:#FEDB03;stroke-width:2.88;" x1="72" y1="-25.199" x2="144.5" y2="-25.199"/>
			<line style="fill:none;stroke:#FEDB03;stroke-width:2.88;" x1="72" y1="-39.6" x2="144.5" y2="-39.6"/>
			<line style="fill:none;stroke:#FEDB03;stroke-width:2.88;" x1="72" y1="-54" x2="144.5" y2="-54"/>
			<line style="fill:none;stroke:#FEDB03;stroke-width:2.88;" x1="72" y1="-68.399" x2="144.5" y2="-68.399"/>
		</g>
		<g>
			<line style="fill:none;stroke:#FEDB03;stroke-width:2.88;" x1="0" y1="-3.6" x2="72.5" y2="-3.6"/>
			<line style="fill:none;stroke:#FEDB03;stroke-width:2.88;" x1="0" y1="-18" x2="72.5" y2="-18"/>
			<line style="fill:none;stroke:#FEDB03;stroke-width:2.88;" x1="0" y1="-32.399" x2="72.5" y2="-32.399"/>
			<line style="fill:none;stroke:#FEDB03;stroke-width:2.88;" x1="0" y1="-46.8" x2="72.5" y2="-46.8"/>
			<line style="fill:none;stroke:#FEDB03;stroke-width:2.88;" x1="0" y1="-61.199" x2="72.5" y2="-61.199"/>
			<line style="fill:none;stroke:#FEDB03;stroke-width:2.88;" x1="0" y1="-10.8" x2="72.5" y2="-10.8"/>
			<line style="fill:none;stroke:#FEDB03;stroke-width:2.88;" x1="0" y1="-25.199" x2="72.5" y2="-25.199"/>
			<line style="fill:none;stroke:#FEDB03;stroke-width:2.88;" x1="0" y1="-39.6" x2="72.5" y2="-39.6"/>
			<line style="fill:none;stroke:#FEDB03;stroke-width:2.88;" x1="0" y1="-54" x2="72.5" y2="-54"/>
			<line style="fill:none;stroke:#FEDB03;stroke-width:2.88;" x1="0" y1="-68.399" x2="72.5" y2="-68.399"/>
		</g>
	</g>
</pattern>
<path style="fill:#FEDB03;" d="M64.534,10.041C58.069,4.221,49.171,1.27,38.087,1.27H0v100.422h20.188V65.51H37.96
	c11.392,0,20.376-2.772,26.705-8.241c6.5-5.617,9.795-13.608,9.795-23.752C74.46,23.87,71.121,15.972,64.534,10.041z M50.415,43.939
	c-2.7,2.392-6.848,3.604-12.328,3.604H20.188V19.235l18.514-0.001c5.063,0.106,8.86,1.431,11.606,4.047
	c2.668,2.543,3.965,5.922,3.965,10.33C54.272,38.262,53.011,41.641,50.415,43.939z"/>
<polygon style="fill:#FEDB03;" points="882.076,1.27 861.889,1.27 861.889,101.514 882.076,81.326 "/>
<polygon style="fill:#FEDB03;" points="418.15,19.235 447.857,19.235 447.857,1.27 368.383,1.27 368.383,19.235 398.026,19.235 
	398.026,101.691 406.879,101.691 418.15,90.42 "/>
<path style="fill:none;" d="M291.823,19.235h-14.636v27.103h14.726c5.094,0,8.955-1.215,11.805-3.713c2.691-2.361,4-5.496,4-9.584
	c0-4.573-1.236-7.905-3.779-10.185C301.296,20.489,297.22,19.271,291.823,19.235z"/>
<path style="fill:#FEDB03;" d="M311.919,59.554c4.329-2.291,7.89-5.334,10.619-9.084c3.604-4.954,5.431-10.807,5.431-17.397
	c0-10.245-3.307-18.234-9.829-23.749c-6.325-5.344-15.276-8.054-26.607-8.054H277.68l-20.743,20.744v79.678h20.251V64.304h15.315
	l20.059,37.388h19.47v-5.795L311.919,59.554z M303.718,42.625c-2.85,2.498-6.711,3.713-11.805,3.713h-14.726V19.235h14.636
	c5.396,0.035,9.473,1.254,12.115,3.621c2.543,2.279,3.779,5.611,3.779,10.185C307.718,37.129,306.409,40.264,303.718,42.625z"/>
<polygon style="fill:#FEDB03;" points="560.256,19.235 560.256,1.27 515.743,1.27 495,22.014 495,101.691 515.188,101.691 
	515.188,60.876 553.972,60.876 553.972,42.91 515.188,42.91 515.188,19.235 "/>
<polygon style="fill:#FEDB03;" points="765.251,83.726 765.251,1.27 760.743,1.27 745,17.014 745,101.691 809.05,101.691 
	809.05,83.726 "/>
<g>
	<path style="fill:none;" d="M160.896,18.474c-6.434,0-11.338,2.355-14.993,7.201c-3.877,5.139-5.901,12.556-6.017,22.046v6.743
		c0,9.703,1.991,17.331,5.919,22.673c3.7,5.031,8.678,7.478,15.218,7.478c6.603,0,11.537-2.292,15.085-7.006
		c3.773-5.013,5.745-12.517,5.861-22.304v-6.808c0-10.022-1.951-17.703-5.801-22.83C172.534,20.827,167.538,18.474,160.896,18.474z"
		/>
	<path style="fill:#FEDB03;" d="M202.094,54.464v-5.84c0-9.54-1.655-18.067-4.921-25.345c-3.358-7.487-8.255-13.307-14.555-17.296
		C176.344,2.013,169.035,0,160.896,0c-8.023,0-15.274,2.039-21.548,6.059c-6.285,4.023-11.195,9.865-14.596,17.364
		c-3.312,7.306-4.99,15.784-4.99,25.201v6.703c0.09,9.257,1.83,17.558,5.172,24.671c3.422,7.291,8.329,13.002,14.583,16.976
		c6.251,3.973,13.487,5.987,21.506,5.987c5.221,0,10.078-0.824,14.525-2.44l22.269-22.269
		C200.644,71.356,202.094,63.373,202.094,54.464z M181.97,55.305c-0.116,9.787-2.088,17.291-5.861,22.304
		c-3.548,4.714-8.482,7.006-15.085,7.006c-6.54,0-11.518-2.446-15.218-7.478c-3.928-5.342-5.919-12.97-5.919-22.673v-6.743
		c0.115-9.49,2.14-16.907,6.017-22.046c3.655-4.846,8.56-7.201,14.993-7.201c6.642,0,11.638,2.354,15.272,7.193
		c3.85,5.127,5.801,12.808,5.801,22.83V55.305z"/>
</g>
<g>
	<path style="fill:none;" d="M649.896,18.474c-6.434,0-11.338,2.355-14.993,7.201c-3.877,5.139-5.901,12.556-6.017,22.046v6.743
		c0,9.703,1.991,17.331,5.919,22.673c3.7,5.031,8.678,7.478,15.218,7.478c6.603,0,11.537-2.292,15.085-7.006
		c3.773-5.013,5.745-12.517,5.861-22.304v-6.808c0-10.022-1.951-17.703-5.801-22.83C661.534,20.827,656.538,18.474,649.896,18.474z"
		/>
	<path style="fill:#FEDB03;" d="M691.094,54.464v-5.84c0-9.54-1.655-18.067-4.921-25.345c-3.358-7.487-8.255-13.307-14.555-17.296
		C665.344,2.013,658.035,0,649.896,0c-8.023,0-15.274,2.039-21.548,6.059c-6.285,4.023-11.195,9.865-14.596,17.364
		c-3.312,7.306-4.99,15.784-4.99,25.201v6.703c0.09,9.257,1.83,17.558,5.172,24.671c3.422,7.291,8.329,13.002,14.583,16.976
		c6.251,3.973,13.487,5.987,21.506,5.987c5.221,0,10.078-0.824,14.525-2.44l22.269-22.269
		C689.644,71.356,691.094,63.373,691.094,54.464z M670.97,55.305c-0.116,9.787-2.088,17.291-5.861,22.304
		c-3.548,4.714-8.482,7.006-15.085,7.006c-6.54,0-11.518-2.446-15.218-7.478c-3.928-5.342-5.919-12.97-5.919-22.673v-6.743
		c0.115-9.49,2.14-16.907,6.017-22.046c3.655-4.846,8.56-7.201,14.993-7.201c6.642,0,11.638,2.354,15.272,7.193
		c3.85,5.127,5.801,12.808,5.801,22.83V55.305z"/>
</g>
<g>
	<path style="fill:none;" d="M975.896,18.474c-6.434,0-11.338,2.355-14.993,7.201c-3.877,5.139-5.901,12.556-6.017,22.046v6.743
		c0,9.703,1.991,17.331,5.919,22.673c3.7,5.031,8.678,7.478,15.218,7.478c6.603,0,11.537-2.292,15.085-7.006
		c3.773-5.013,5.745-12.517,5.861-22.304v-6.808c0-10.022-1.951-17.703-5.801-22.83C987.534,20.827,982.538,18.474,975.896,18.474z"
		/>
	<path style="fill:#FEDB03;" d="M1017.094,54.464v-5.84c0-9.54-1.655-18.067-4.921-25.345c-3.358-7.487-8.255-13.307-14.555-17.296
		C991.344,2.013,984.035,0,975.896,0c-8.023,0-15.274,2.039-21.548,6.059c-6.285,4.023-11.195,9.865-14.596,17.364
		c-3.312,7.306-4.99,15.784-4.99,25.201v6.703c0.09,9.257,1.83,17.558,5.172,24.671c3.422,7.291,8.329,13.002,14.583,16.976
		c6.251,3.973,13.487,5.987,21.506,5.987c5.221,0,10.078-0.824,14.525-2.44l22.269-22.269
		C1015.644,71.356,1017.094,63.373,1017.094,54.464z M996.97,55.305c-0.116,9.787-2.088,17.291-5.861,22.304
		c-3.548,4.714-8.482,7.006-15.085,7.006c-6.54,0-11.518-2.446-15.218-7.478c-3.928-5.342-5.919-12.97-5.919-22.673v-6.743
		c0.115-9.49,2.14-16.907,6.017-22.046c3.655-4.846,8.56-7.201,14.993-7.201c6.642,0,11.638,2.354,15.272,7.193
		c3.85,5.127,5.801,12.808,5.801,22.83V55.305z"/>
</g>
<g style="opacity:0.86;">
	
		<pattern  id="SVGID_1_" xlink:href="#_x31_0_lpi_40_x25__2" patternTransform="matrix(0.7071 -0.7071 0.7071 0.7071 3066.3145 -7491.7036)"  style="opacity:0.86;">
	</pattern>
	<path style="opacity:0.6;fill:url(#SVGID_1_);" d="M74.534,10.041C68.069,4.221,59.171,1.27,48.087,1.27H10v100.422h20.188V65.51
		H47.96c11.392,0,20.376-2.772,26.705-8.241c6.5-5.617,9.795-13.608,9.795-23.752C84.46,23.87,81.121,15.972,74.534,10.041z
		 M60.415,43.939c-2.7,2.392-6.848,3.604-12.328,3.604H30.188V19.235l18.514-0.001c5.063,0.106,8.86,1.431,11.606,4.047
		c2.668,2.543,3.965,5.922,3.965,10.33C64.272,38.262,63.011,41.641,60.415,43.939z"/>
	<g style="opacity:0.7;">
		
			<pattern  id="SVGID_2_" xlink:href="#_x31_0_lpi_40_x25__2" patternTransform="matrix(0.7071 -0.7071 0.7071 0.7071 3094.3145 -7491.7036)"  style="opacity:0.7;">
		</pattern>
		<polygon style="fill:url(#SVGID_2_);" points="892.076,88.326 892.076,1.27 871.889,1.27 871.889,101.691 878.889,101.691 
			878.889,101.514 		"/>
	</g>
	<g style="opacity:0.7;">
		
			<pattern  id="SVGID_3_" xlink:href="#_x31_0_lpi_40_x25__2" patternTransform="matrix(0.7071 -0.7071 0.7071 0.7071 3078.3145 -7491.7036)"  style="opacity:0.7;">
		</pattern>
		<polygon style="fill:url(#SVGID_3_);" points="378.383,1.27 378.383,19.235 408.026,19.235 408.026,101.691 416.879,100.691 
			428.15,89.42 428.15,19.235 457.857,19.235 457.857,1.27 		"/>
	</g>
	<g style="opacity:0.7;">
		<path style="fill:none;" d="M301.823,19.235h-14.636v27.103h14.726c5.094,0,8.955-1.215,11.805-3.713c2.691-2.361,4-5.496,4-9.584
			c0-4.573-1.236-7.905-3.779-10.185C311.296,20.489,307.22,19.271,301.823,19.235z"/>
		
			<pattern  id="SVGID_4_" xlink:href="#_x31_0_lpi_40_x25__2" patternTransform="matrix(0.7071 -0.7071 0.7071 0.7071 3074.3145 -7491.7036)"  style="opacity:0.7;">
		</pattern>
		<path style="opacity:0.8;fill:url(#SVGID_4_);" d="M321.919,59.554c4.329-2.291,7.89-5.334,10.619-9.084
			c3.604-4.954,5.431-10.807,5.431-17.397c0-10.245-3.307-18.234-9.829-23.749c-6.325-5.344-15.276-8.054-26.607-8.054H275.68
			l-8.743,8.744v91.678h20.251V64.304h15.315l20.059,37.388h19.47v-5.795L321.919,59.554z M313.718,42.625
			c-2.85,2.498-6.711,3.713-11.805,3.713h-14.726V19.235h14.636c5.396,0.035,9.473,1.254,12.115,3.621
			c2.543,2.279,3.779,5.611,3.779,10.185C317.718,37.129,316.409,40.264,313.718,42.625z"/>
	</g>
	<g style="opacity:0.7;">
		
			<pattern  id="SVGID_5_" xlink:href="#_x31_0_lpi_40_x25__2" patternTransform="matrix(0.7071 -0.7071 0.7071 0.7071 3082.3145 -7491.7036)"  style="opacity:0.7;">
		</pattern>
		<polygon style="opacity:0.8;fill:url(#SVGID_5_);" points="570.256,19.235 570.256,1.27 515.743,1.27 505,12.014 505,101.691 
			525.188,101.691 525.188,60.876 563.972,60.876 563.972,42.91 525.188,42.91 525.188,19.235 		"/>
	</g>
	<g style="opacity:0.7;">
		
			<pattern  id="SVGID_6_" xlink:href="#_x31_0_lpi_40_x25__2" patternTransform="matrix(0.7071 -0.7071 0.7071 0.7071 3090.3145 -7491.7036)"  style="opacity:0.7;">
		</pattern>
		<polygon style="fill:url(#SVGID_6_);" points="775.251,83.726 775.251,1.27 760.743,1.27 755,7.013 755,101.691 819.05,101.691 
			819.05,83.726 		"/>
	</g>
	<g style="opacity:0.7;">
		<path style="fill:none;" d="M174.896,18.474c-6.434,0-11.338,2.355-14.993,7.201c-3.877,5.139-5.901,12.556-6.017,22.046v6.743
			c0,9.703,1.991,17.331,5.919,22.673c3.7,5.031,8.678,7.478,15.218,7.478c6.603,0,11.537-2.292,15.085-7.006
			c3.773-5.013,5.745-12.517,5.861-22.304v-6.808c0-10.022-1.951-17.703-5.801-22.83C186.534,20.827,181.538,18.474,174.896,18.474z
			"/>
		
			<pattern  id="SVGID_7_" xlink:href="#_x31_0_lpi_40_x25__2" patternTransform="matrix(0.7071 -0.7071 0.7071 0.7071 3074.3145 -7491.7036)"  style="opacity:0.7;">
		</pattern>
		<path style="opacity:0.8;fill:url(#SVGID_7_);" d="M216.094,54.464v-5.84c0-9.54-1.655-18.067-4.921-25.345
			c-3.358-7.487-8.255-13.307-14.555-17.296C190.344,2.013,183.035,0,174.896,0c-8.023,0-15.274,2.039-21.548,6.059
			c-6.285,4.023-11.195,9.865-14.596,17.364c-3.312,7.306-4.99,15.784-4.99,25.201v6.703c0.09,9.257,1.83,17.558,5.172,24.671
			c3.422,7.291,8.329,13.002,14.583,16.976c6.251,3.973,13.487,5.987,21.506,5.987c4.701,0,9.1-0.684,13.179-1.995l24.219-24.22
			C214.854,70.202,216.094,62.728,216.094,54.464z M195.97,55.305c-0.116,9.787-2.088,17.291-5.861,22.304
			c-3.548,4.714-8.482,7.006-15.085,7.006c-6.54,0-11.518-2.446-15.218-7.478c-3.928-5.342-5.919-12.97-5.919-22.673v-6.743
			c0.115-9.49,2.14-16.907,6.017-22.046c3.655-4.846,8.56-7.201,14.993-7.201c6.642,0,11.638,2.354,15.272,7.193
			c3.85,5.127,5.801,12.808,5.801,22.83V55.305z"/>
	</g>
	<g style="opacity:0.7;">
		<path style="fill:none;" d="M663.896,18.474c-6.434,0-11.338,2.355-14.993,7.201c-3.877,5.139-5.901,12.556-6.017,22.046v6.743
			c0,9.703,1.991,17.331,5.919,22.673c3.7,5.031,8.678,7.478,15.218,7.478c6.603,0,11.537-2.292,15.085-7.006
			c3.773-5.013,5.745-12.517,5.861-22.304v-6.808c0-10.022-1.951-17.703-5.801-22.83C675.534,20.827,670.538,18.474,663.896,18.474z
			"/>
		
			<pattern  id="SVGID_8_" xlink:href="#_x31_0_lpi_40_x25__2" patternTransform="matrix(0.7071 -0.7071 0.7071 0.7071 3105.1094 -7440.792)"  style="opacity:0.7;">
		</pattern>
		<path style="opacity:0.8;fill:url(#SVGID_8_);" d="M705.094,54.464v-5.84c0-9.54-1.655-18.067-4.921-25.345
			c-3.358-7.487-8.255-13.307-14.555-17.296C679.344,2.013,672.035,0,663.896,0c-8.023,0-15.274,2.039-21.548,6.059
			c-6.285,4.023-11.195,9.865-14.596,17.364c-3.312,7.306-4.99,15.784-4.99,25.201v6.703c0.09,9.257,1.83,17.558,5.172,24.671
			c3.422,7.291,8.329,13.002,14.583,16.976c6.251,3.973,13.487,5.987,21.506,5.987c4.701,0,9.1-0.684,13.179-1.995l24.219-24.22
			C703.854,70.202,705.094,62.728,705.094,54.464z M684.97,55.305c-0.116,9.787-2.088,17.291-5.861,22.304
			c-3.548,4.714-8.482,7.006-15.085,7.006c-6.54,0-11.518-2.446-15.218-7.478c-3.928-5.342-5.919-12.97-5.919-22.673v-6.743
			c0.115-9.49,2.14-16.907,6.017-22.046c3.655-4.846,8.56-7.201,14.993-7.201c6.642,0,11.638,2.354,15.272,7.193
			c3.85,5.127,5.801,12.808,5.801,22.83V55.305z"/>
	</g>
	<g style="opacity:0.7;">
		<path style="fill:none;" d="M989.896,18.474c-6.434,0-11.338,2.355-14.993,7.201c-3.877,5.139-5.901,12.556-6.017,22.046v6.743
			c0,9.703,1.991,17.331,5.919,22.673c3.7,5.031,8.678,7.478,15.218,7.478c6.603,0,11.537-2.292,15.085-7.006
			c3.773-5.013,5.745-12.517,5.861-22.304v-6.808c0-10.022-1.951-17.703-5.801-22.83C1001.534,20.827,996.538,18.474,989.896,18.474
			z"/>
		
			<pattern  id="SVGID_9_" xlink:href="#_x31_0_lpi_40_x25__2" patternTransform="matrix(0.7071 -0.7071 0.7071 0.7071 3125.6387 -7440.792)"  style="opacity:0.7;">
		</pattern>
		<path style="opacity:0.8;fill:url(#SVGID_9_);" d="M1031.094,54.464v-5.84c0-9.54-1.655-18.067-4.921-25.345
			c-3.358-7.487-8.255-13.307-14.555-17.296C1005.344,2.013,998.035,0,989.896,0c-8.023,0-15.274,2.039-21.548,6.059
			c-6.285,4.023-11.195,9.865-14.596,17.364c-3.312,7.306-4.99,15.784-4.99,25.201v6.703c0.09,9.257,1.83,17.558,5.172,24.671
			c3.422,7.291,8.329,13.002,14.583,16.976c6.251,3.973,13.487,5.987,21.506,5.987c4.701,0,9.1-0.684,13.179-1.995l24.219-24.22
			C1029.854,70.202,1031.094,62.728,1031.094,54.464z M1010.97,55.305c-0.116,9.787-2.088,17.291-5.861,22.304
			c-3.548,4.714-8.482,7.006-15.085,7.006c-6.54,0-11.518-2.446-15.218-7.478c-3.928-5.342-5.919-12.97-5.919-22.673v-6.743
			c0.115-9.49,2.14-16.907,6.017-22.046c3.655-4.846,8.56-7.201,14.993-7.201c6.642,0,11.638,2.354,15.272,7.193
			c3.85,5.127,5.801,12.808,5.801,22.83V55.305z"/>
	</g>
</g>
</svg>
